[center]



Foster 2011 DVDRip XviD-OCW
  
http://www.imdb.com/title/tt1629443/

General
Complete name                    : Foster.2011.DVDRip.XviD-OCW.avi
Format                         : AVI
Format/Info                      : Audio Video Interleave
File size                        : 700 MiB
Duration                       : 1h 30mn
Overall bit rate               : 1 085 Kbps
Writing application              : VirtualDubMod 1.5.4.1 (build 2178/release)
Writing library                  : VirtualDubMod build 2178/release

Video
ID                             : 0
Format                         : MPEG-4 Visual
Format profile                 : Advanced Simple@L5
Format settings, BVOP            : 1
Format settings, QPel            : No
Format settings, GMC           : No warppoints
Format settings, Matrix          : Custom
Codec ID                       : XVID
Codec ID/Hint                    : XviD
Duration                       : 1h 30mn
Bit rate                       : 957 Kbps
Width                            : 720 pixels
Height                         : 416 pixels
Display aspect ratio           : 16:9
Frame rate                     : 23.976 fps
Color space                      : YUV
Chroma subsampling             : 4:2:0
Bit depth                        : 8 bits
Scan type                        : Progressive
Compression mode               : Lossy
Bits/(Pixel*Frame)             : 0.133
Stream size                      : 618 MiB (88%)
Writing library                  : XviD 62

Audio
ID                             : 1
Format                         : MPEG Audio
Format version                 : Version 1
Format profile                 : Layer 3
Mode                           : Joint stereo
Mode extension                 : MS Stereo
Codec ID                       : 55
Codec ID/Hint                    : MP3
Duration                       : 1h 30mn
Bit rate mode                    : Variable
Bit rate                       : 115 Kbps
Nominal bit rate               : 128 Kbps
Channel(s)                     : 2 channels
Sampling rate                    : 48.0 KHz
Compression mode               : Lossy
Stream size                      : 74.2 MiB (11%)
Alignment                        : Aligned on interleaves
Interleave, duration           : 24 ms (0.58 video frame)
Interleave, preload duration   : 544 ms
Writing library                  : LAME3.98r
Encoding settings                : -m j -V 4 -q 2 -lowpass 17 --abr 128
Language                       : English

Plot

Looking to adopt a child and unable to conceive a child of their own, 
the Morrison's lives are turned upside down when a 7 year old boy 
unexpectedly shows up on their doorstep.

Cast

Maurice Cole ... Eli
Toni Collette ... Zooey
Ioan Gruffudd ... Alec
Hayley Mills ... Mrs Lange
Richard E. Grant ... Mr Potts
Anne Reid ... Diane
Daisy Beaumont ... Sarah
Bobby Smalldridge ... Samuel


[img]http://img819.imageshack.us/img819/7213/q01zn.jpg[/img]
[img]http://img716.imageshack.us/img716/8574/sdcg9.jpg[/img]
[img]http://img853.imageshack.us/img853/2922/d882k.jpg[/img]
[/center]